:SAMPLES-PER-SECOND 30
:FULLY-SPECIFIED
:DEGREES
546
root  -10.0045 39.0725 1.37109 59.9245 -89.1277 -63.7473
RightUpLeg  5.84988 -7.60195 0.414644
RightLeg  16.0796 5.00283 1.58052
RightFoot  -16.8833 -0.293851 -3.69774
RightToes  -3.31784e-009 0 -3.6325e-017
Spine  9.09853 1.28917 10.9466
Spine1  4.34711 2.75173 -3.74277
HEad  -10.1158 -3.15181 -3.17022
LeftShoulder1  -0.650665 5.13592 -33.7004
LeftArm  4.44172 21.8286 -35.3833
LeftForeArm  21.1297 -21.3104 -4.16227
LeftHand  -0.121239 9.47006 -1.86445
RightShoulder  -1.06719 -6.50533 29.0231
RightArm  19.7111 6.36072 45.0705
RightForeArm  10.8418 29.1921 5.74608
RightHand  -0.157163 5.08404 -2.04345
LeftUpLeg  -19.9901 4.01044 3.10254
LeftLeg  2.30781 -2.09629 -0.36169
LeftFoot  -1.63078 0.679502 -7.89017
LeftToes  1.28511e-009 -3.60458e-011 6.16399e-011
547
root  -11.1049 38.8228 1.44528 83.3624 -89.2249 -87.3087
RightUpLeg  6.82962 -6.5637 0.461748
RightLeg  18.117 4.22649 1.21332
RightFoot  -18.9152 -0.319106 -2.9235
RightToes  -3.31784e-009 0 -3.6325e-017
Spine  9.23383 1.2642 10.2457
Spine1  4.98926 2.77517 -3.98842
HEad  -10.6188 -2.89539 -2.73851
LeftShoulder1  -0.603963 5.03493 -33.2905
LeftArm  4.78089 22.2886 -35.7533
LeftForeArm  20.5961 -23.766 -3.99202
LeftHand  -0.0890316 9.69251 -0.90239
RightShoulder  -1.11141 -6.59986 29.373
RightArm  22.2925 5.16663 45.2786
RightForeArm  9.31027 27.2464 5.37443
RightHand  -0.140157 4.67044 -1.91093
LeftUpLeg  -20.1211 4.21268 2.99896
LeftLeg  1.65664 -2.05394 -0.655239
LeftFoot  -1.78955 0.791747 -9.27961
LeftToes  1.28511e-009 -3.60458e-011 6.16399e-011
548
root  -12.202 38.4639 1.52989 101.652 -88.9361 -105.751
RightUpLeg  6.65115 -4.61468 0.963388
RightLeg  22.5724 2.53579 0.901388
RightFoot  -21.167 -0.227974 -1.00187
RightToes  -3.31784e-009 0 -3.6325e-017
Spine  9.9855 1.08086 9.36946
Spine1  5.01016 2.53906 -3.70865
HEad  -11.1834 -2.27449 -2.80473
LeftShoulder1  -0.59124 5.01217 -33.0453
LeftArm  4.15893 22.5614 -35.975
LeftForeArm  21.4183 -25.9873 -4.42889
LeftHand  -0.116791 10.7311 -1.2277
RightShoulder  -1.13872 -6.62599 29.9529
RightArm  25.5014 3.75978 45.2863
RightForeArm  7.2287 24.9646 4.95431
RightHand  -0.162069 4.45121 -2.18476
LeftUpLeg  -21.0657 4.8628 2.66116
LeftLeg  5.62583 -0.992296 -0.778426
LeftFoot  -0.258384 0.84221 -8.72162
LeftToes  1.28511e-009 -3.60458e-011 6.16399e-011
549
root  -13.1686 38.135 1.64161 138.397 -88.462 -142.59
RightUpLeg  4.65343 -3.97591 0.302752
RightLeg  29.996 3.07171 1.73955
RightFoot  -22.0941 0.0688646 2.25141
RightToes  -3.31784e-009 0 -3.6325e-017
Spine  11.3932 1.2218 7.75801
Spine1  5.3107 2.6185 -3.41113
HEad  -12.3385 -1.97439 -2.61273
LeftShoulder1  -0.625109 5.08988 -33.2525
LeftArm  3.94224 22.0277 -36.3748
LeftForeArm  22.0217 -27.6747 -4.77501
LeftHand  -0.0757801 10.9061 -0.350671
RightShoulder  -1.12339 -6.57302 30.0744
RightArm  27.3754 2.10135 45.3025
RightForeArm  6.11736 22.8391 4.70217
RightHand  -0.23411 4.63734 -3.0083
LeftUpLeg  -22.7673 5.9265 1.73392
LeftLeg  11.048 -1.25103 -0.624174
LeftFoot  4.72949 0.484779 -3.90273
LeftToes  1.28511e-009 -3.60458e-011 6.16399e-011
550
root  -14.0075 37.6614 1.80235 174.959 -87.266 -179.058
RightUpLeg  -0.626995 -4.33867 -1.98115
RightLeg  42.562 5.0304 4.70378
RightFoot  -20.1626 0.422222 7.78143
RightToes  -3.31784e-009 0 -3.6325e-017
Spine  13.9965 1.32148 5.74446
Spine1  4.84431 2.66021 -3.59805
HEad  -14.247 -1.14658 -2.45915
LeftShoulder1  -0.664814 5.18322 -33.4289
LeftArm  3.16086 20.849 -37.162
LeftForeArm  23.2772 -28.8918 -4.98176
LeftHand  -0.0745338 8.97683 -0.746946
RightShoulder  -1.16714 -6.65291 30.5473
RightArm  28.2169 1.50964 45.2078
RightForeArm  6.74329 20.1864 5.01139
RightHand  -0.207744 4.03609 -2.8616
LeftUpLeg  -25.259 7.24704 0.433484
LeftLeg  16.7538 -2.6451 -0.827941
LeftFoot  10.375 -0.22574 1.02406
LeftToes  1.28511e-009 -3.60458e-011 6.16399e-011
551
root  -14.7035 37.1338 1.97228 -161.523 -86.2695 157.245
RightUpLeg  -7.59742 -5.50133 -5.47817
RightLeg  56.5444 5.38867 8.23925
RightFoot  -13.1929 0.147207 13.2417
RightToes  -3.31784e-009 0 -3.6325e-017
Spine  17.8801 1.24124 2.81193
Spine1  3.99363 2.1669 -2.91288
HEad  -17.4684 -0.117631 -2.47213
LeftShoulder1  -0.582851 4.98562 -33.1632
LeftArm  3.01085 18.4424 -38.5642
LeftForeArm  23.6157 -29.7194 -5.15637
LeftHand  -0.0475349 7.65287 -0.308624
RightShoulder  -1.11804 -6.5162 30.5656
RightArm  24.9414 0.821108 45.5383
RightForeArm  9.42093 18.1086 5.48561
RightHand  -0.134795 4.91118 -1.813
LeftUpLeg  -28.2073 7.48765 -1.52362
LeftLeg  24.6535 -2.00399 -0.643641
LeftFoot  7.52911 -0.680983 3.81555
LeftToes  1.28511e-009 -3.60458e-011 6.16399e-011
